<svg width="57" height="56" viewBox="0 0 57 56" fill="none" xmlns="http://www.w3.org/2000/svg">
<rect x="4.33594" y="4" width="48" height="48" rx="24" fill="#FFF0F1"/>
<rect x="4.33594" y="4" width="48" height="48" rx="24" stroke="#FFF4F4" stroke-width="8"/>
<path d="M38.3373 32.9201V35.9201C38.3385 36.1986 38.2814 36.4743 38.1698 36.7294C38.0583 36.9846 37.8946 37.2137 37.6894 37.402C37.4842 37.5902 37.2419 37.7336 36.9781 37.8228C36.7143 37.912 36.4347 37.9452 36.1573 37.9201C33.0802 37.5857 30.1243 36.5342 27.5273 34.8501C25.1112 33.3148 23.0627 31.2663 21.5273 28.8501C19.8373 26.2413 18.7856 23.2711 18.4573 20.1801C18.4323 19.9036 18.4652 19.6249 18.5538 19.3617C18.6425 19.0986 18.7849 18.8568 18.9721 18.6517C19.1593 18.4466 19.3871 18.2828 19.6411 18.1706C19.8951 18.0584 20.1697 18.0004 20.4473 18.0001H23.4473C23.9326 17.9953 24.4031 18.1672 24.7711 18.4836C25.1391 18.8001 25.3794 19.2395 25.4473 19.7201C25.574 20.6802 25.8088 21.6228 26.1473 22.5301C26.2819 22.888 26.311 23.277 26.2312 23.651C26.1515 24.0249 25.9662 24.3682 25.6973 24.6401L24.4273 25.9101C25.8509 28.4136 27.9238 30.4865 30.4273 31.9101L31.6973 30.6401C31.9692 30.3712 32.3125 30.1859 32.6865 30.1062C33.0604 30.0264 33.4494 30.0556 33.8073 30.1901C34.7146 30.5286 35.6573 30.7635 36.6173 30.8901C37.1031 30.9586 37.5467 31.2033 37.8639 31.5776C38.181 31.9519 38.3495 32.4297 38.3373 32.9201Z" stroke="#FD2E35" stroke-width="2" stroke-linecap="round" stroke-linejoin="round"/>
</svg>
