<svg width="15" height="12" viewBox="0 0 15 12" fill="none" xmlns="http://www.w3.org/2000/svg">
<path d="M12.7422 3.29688C12.7422 3.43359 12.7422 3.54297 12.7422 3.67969C12.7422 7.48047 9.87109 11.8281 4.59375 11.8281C2.95312 11.8281 1.44922 11.3633 0.191406 10.543C0.410156 10.5703 0.628906 10.5977 0.875 10.5977C2.21484 10.5977 3.44531 10.1328 4.42969 9.36719C3.17188 9.33984 2.10547 8.51953 1.75 7.37109C1.94141 7.39844 2.10547 7.42578 2.29688 7.42578C2.54297 7.42578 2.81641 7.37109 3.03516 7.31641C1.72266 7.04297 0.738281 5.89453 0.738281 4.5V4.47266C1.12109 4.69141 1.58594 4.80078 2.05078 4.82812C1.25781 4.30859 0.765625 3.43359 0.765625 2.44922C0.765625 1.90234 0.902344 1.41016 1.14844 1C2.57031 2.72266 4.70312 3.87109 7.08203 4.00781C7.02734 3.78906 7 3.57031 7 3.35156C7 1.76562 8.28516 0.480469 9.87109 0.480469C10.6914 0.480469 11.4297 0.808594 11.9766 1.38281C12.6055 1.24609 13.2344 1 13.7812 0.671875C13.5625 1.35547 13.125 1.90234 12.5234 2.25781C13.0977 2.20312 13.6719 2.03906 14.1641 1.82031C13.7812 2.39453 13.2891 2.88672 12.7422 3.29688Z" fill="#242540"/>
</svg>
