<svg width="16" height="12" viewBox="0 0 16 12" fill="none" xmlns="http://www.w3.org/2000/svg">
<path d="M15.1309 2.55859C15.459 3.70703 15.459 6.16797 15.459 6.16797C15.459 6.16797 15.459 8.60156 15.1309 9.77734C14.9668 10.4336 14.4473 10.9258 13.8184 11.0898C12.6426 11.3906 7.99414 11.3906 7.99414 11.3906C7.99414 11.3906 3.31836 11.3906 2.14258 11.0898C1.51367 10.9258 0.994141 10.4336 0.830078 9.77734C0.501953 8.60156 0.501953 6.16797 0.501953 6.16797C0.501953 6.16797 0.501953 3.70703 0.830078 2.55859C0.994141 1.90234 1.51367 1.38281 2.14258 1.21875C3.31836 0.890625 7.99414 0.890625 7.99414 0.890625C7.99414 0.890625 12.6426 0.890625 13.8184 1.21875C14.4473 1.38281 14.9668 1.90234 15.1309 2.55859ZM6.46289 8.38281L10.3457 6.16797L6.46289 3.95312V8.38281Z" fill="#242540"/>
</svg>
