<svg width="200" height="97" viewBox="0 0 200 97" fill="none" xmlns="http://www.w3.org/2000/svg">
<path d="M182.301 27.8763L178.333 31.494V23.9192C171.098 17.6177 161.648 13.7931 151.299 13.7931C128.547 13.7931 110.104 32.2368 110.104 54.9883C110.104 77.7399 128.547 96.1836 151.299 96.1836C174.051 96.1836 192.494 77.7399 192.494 54.9883C192.494 44.6025 188.642 35.1221 182.301 27.8763Z" fill="#EB1D2B"/>
<path d="M8.45216 46.2009H14.1595L9.2205 60.6891H13.3913C13.3913 60.6891 21.2571 59.5555 16.9882 52.9361C16.9882 52.9361 19.3149 51.7105 22.1685 48.9547C25.0223 46.1988 23.0799 43.3472 20.4157 43.3472C17.7817 43.3472 0.000976562 43.3472 0.000976562 43.3472L2.08622 39.7393H24.3751C24.3751 39.7393 30.0747 40.3837 30.0747 44.8839C30.0747 49.3841 22.6483 52.7921 22.6483 52.7921C22.6483 52.7921 24.5151 55.1407 23.0888 58.5837C21.6833 61.9768 17.672 63.3232 13.1718 63.3232C8.67164 63.3232 2.64292 63.3232 2.64292 63.3232L8.45216 46.2009Z" fill="#232121"/>
<path d="M27.6943 60.6506L30.0749 54.0713C30.0749 54.0713 26.7927 52.8996 28.5052 49.745C29.838 47.2904 34.9945 48.0327 34.9945 48.0327L33.7329 51.9984H42.9257L40.3095 59.2143C40.3095 59.2143 39.6031 60.5851 40.8648 60.7651C42.1265 60.9453 48.2203 60.7651 48.2203 60.7651L46.0183 63.1406H36.8035C36.8035 63.1406 34.4532 62.9979 35.3543 60.204C36.5364 56.5397 37.4101 54.526 37.4101 54.526L33.1019 54.5222L30.398 60.6506H27.6943Z" fill="#232121"/>
<path d="M102.111 55.6302L100.783 59.5919C100.587 60.1773 99.9751 60.5838 99.2734 60.5953L98.1598 60.6137C97.2577 60.6287 96.5932 59.8839 96.8346 59.1287L98.0944 55.1904C98.2076 54.8362 98.5777 54.5905 99.0012 54.5883L101.197 54.5781C101.83 54.5751 102.288 55.1019 102.111 55.6302ZM106.358 60.9248L112.087 43.2298H106.236L103.093 51.8978H98.0871C98.0871 51.8978 90.9268 52.0094 90.9268 58.8177C90.9268 64.1583 96.159 63.5995 96.159 63.5995C96.159 63.5995 98.976 63.3828 100.06 62.083C100.06 62.083 100.493 63.058 101.902 63.1661C103.31 63.2746 110.895 63.1661 110.895 63.1661L113.213 60.9248H106.358Z" fill="#1E1B1B"/>
<path d="M58.2824 55.8639L57.1124 59.3552C56.9393 59.871 56.4004 60.2296 55.7821 60.2394L54.8009 60.2556C54.0057 60.2685 53.4202 59.6129 53.633 58.9472L54.7428 55.4768C54.8428 55.1645 55.1689 54.9478 55.5419 54.946L57.4773 54.9371C58.035 54.9342 58.4388 55.399 58.2824 55.8639ZM62.4246 60.736L65.1761 51.9236C65.1761 51.9236 56.9077 51.9236 54.1488 51.9236C51.9156 52.3176 48.5764 54.1176 47.6619 57.5853C46.7449 61.0617 48.2679 63.4227 51.6442 63.6158C54.3249 63.7696 54.9881 62.7081 55.7667 62.0594C56.3637 61.9556 56.6829 62.7889 57.1684 63.0713C57.7453 63.4082 58.1542 63.3734 58.1542 63.3734L67.4363 63.2414L69.5465 60.736H62.4246Z" fill="#232121"/>
<path d="M179.783 56.2682L178.492 60.1183C178.301 60.6873 177.707 61.082 177.025 61.0932L175.943 61.1111C175.066 61.1253 174.42 60.4021 174.655 59.668L175.879 55.8412C175.989 55.4968 176.349 55.258 176.76 55.2558L178.894 55.246C179.509 55.2434 179.954 55.7554 179.783 56.2682ZM184.35 61.6405L187.384 51.923C187.384 51.923 178.266 51.923 175.224 51.923C172.761 52.3576 168.65 54.2545 168.071 58.166C167.491 62.0778 168.739 64.6032 172.462 64.8165C175.418 64.9857 176.15 63.8156 177.008 63.0998C177.666 62.9858 178.018 63.9046 178.554 64.2161C179.19 64.587 179.641 64.5489 179.641 64.5489L189.876 64.4037L192.203 61.6405H184.35Z" fill="white"/>
<path d="M72.2028 51.9035L68.4277 63.4248H72.8147L80.5687 57.3033L79.6503 60.262C79.6503 60.262 78.1201 63.4248 81.3849 63.4248C84.6497 63.4248 89.5465 63.4248 89.5465 63.4248L92.4032 61.0783H85.5676L87.2 54.6508C87.2 54.6508 88.0782 51.421 85.7202 51.2604C83.6301 51.2065 79.879 55.4401 76.5564 57.3696C77.0389 55.8687 78.2175 51.9035 78.2175 51.9035H72.2028Z" fill="#232121"/>
<path d="M116.447 52.2546H123.322L123.523 61.1509L130.398 52.0525H146.472L142.755 61.5555H150.762L148.191 64.3862H138.87C137.41 64.3862 136.384 62.9499 136.857 61.5692L139.323 54.5396H132.842L124.836 64.7383H117.877L116.447 52.2546Z" fill="white"/>
<path d="M150.666 54.7307L151.619 51.7761C151.619 51.7761 156.29 52.4432 159.721 44.4367H163.153L160.674 51.7761H165.44L162.676 54.5401H159.912L157.624 61.9885H167.918L165.209 64.6982H153.066C151.652 64.6982 150.654 63.3116 151.102 61.9705L153.525 54.7307H150.666Z" fill="white"/>
<path d="M149.218 43.998C149.218 46.5748 147.129 48.6641 144.552 48.6641C141.975 48.6641 139.886 46.5748 139.886 43.998C139.886 41.4208 141.975 39.332 144.552 39.332C147.129 39.332 149.218 41.4208 149.218 43.998Z" fill="white"/>
<path d="M164.63 13.8311V3.10544C164.63 1.39056 163.24 2.00272e-05 161.525 2.00272e-05C159.81 2.00272e-05 158.42 1.39056 158.42 3.10544V12.511C160.543 12.8008 162.616 13.2448 164.63 13.8311Z" fill="#EBE00C"/>
<path d="M141.852 13.4229C143.869 12.9126 145.94 12.5404 148.058 12.3246L145.577 5.44969C144.993 3.83651 143.215 2.99894 141.601 3.58311C139.989 4.16556 139.153 5.94497 139.735 7.55815L141.852 13.4229Z" fill="#EBE00C"/>
<path d="M199.043 14.7525C197.805 13.5653 195.838 13.6081 194.653 14.846L184.129 25.8272C185.555 27.3502 186.872 28.9754 188.068 30.6924L199.136 19.1429C200.323 17.9049 200.281 15.9392 199.043 14.7525Z" fill="#ED202C"/>
<path d="M177.676 20.1729L182.037 7.64262C182.601 6.0226 181.746 4.25259 180.125 3.68894C178.509 3.12572 176.736 3.98124 176.172 5.60083L172.252 16.8653C174.145 17.8375 175.957 18.943 177.676 20.1729Z" fill="#ED202C"/>
<path d="M125.91 20.9219C127.587 19.6296 129.36 18.457 131.217 17.4178L127.884 14.1799C126.654 12.9859 124.689 13.0141 123.493 14.2444C122.298 15.4742 122.327 17.4408 123.556 18.6352L125.91 20.9219Z" fill="#5DC233"/>
<path d="M111.92 36.4248L113.027 36.5615C114.016 34.5206 115.167 32.5737 116.451 30.7263L112.681 30.2614C110.969 30.0477 109.429 31.2609 109.219 32.963C109.009 34.665 110.218 36.215 111.92 36.4248Z" fill="#5DC233"/>
</svg>
